<svg width="1440" height="1261" viewBox="0 0 1440 1261" fill="none" xmlns="http://www.w3.org/2000/svg">
<path d="M1467.33 1259.1V1260.1H-27.3331V1259.1H1467.33ZM53.6766 -235.602V-235.563H199.619V-235.602H200.619V-235.563H346.561V-235.602H347.561V-235.563H493.503V-235.602H494.503V-235.563H640.445V-235.602H641.445V-235.563H787.387V-235.602H788.387V-235.563H934.329V-235.602H935.329V-235.563H1081.27V-235.602H1082.27V-235.563H1228.21V-235.602H1229.21V-235.563H1375.16V-235.602H1376.16V-235.563H1467.33V-234.563H1376.16V-88.6219H1467.33V-87.6219H1376.16V58.3204H1467.33V59.3204H1376.16V205.263H1467.33V206.263H1376.16V352.204H1467.33V353.204H1376.16V499.147H1467.33V500.147H1376.16V646.088H1467.33V647.088H1376.16V793.03H1467.33V794.03H1376.16V939.973H1467.33V940.973H1376.16V1086.91H1467.33V1087.91H1376.16V1259.06H1375.16V1087.91H1229.21V1259.06H1228.21V1087.91H1082.27V1259.06H1081.27V1087.91H935.329V1259.06H934.329V1087.91H788.387V1259.06H787.387V1087.91H641.445V1259.06H640.445V1087.91H494.503V1259.06H493.503V1087.91H347.561V1259.06H346.561V1087.91H200.619V1259.06H199.619V1087.91H53.6766V1259.06H52.6766V1087.91H-27.3331V1086.91H52.6766V940.973H-27.3331V939.973H52.6766V794.03H-27.3331V793.03H52.6766V647.088H-27.3331V646.088H52.6766V500.147H-27.3331V499.147H52.6766V353.204H-27.3331V352.204H52.6766V206.263H-27.3331V205.263H52.6766V59.3204H-27.3331V58.3204H52.6766V-87.6219H-27.3331V-88.6219H52.6766V-234.563H-27.3331V-235.563H52.6766V-235.602H53.6766ZM1229.21 1086.91H1375.16V940.973H1229.21V1086.91ZM1082.27 1086.91H1228.21V940.973H1082.27V1086.91ZM935.329 1086.91H1081.27V940.973H935.329V1086.91ZM788.387 1086.91H934.329V940.973H788.387V1086.91ZM641.445 1086.91H787.387V940.973H641.445V1086.91ZM494.503 1086.91H640.445V940.973H494.503V1086.91ZM347.561 1086.91H493.503V940.973H347.561V1086.91ZM200.619 1086.91H346.561V940.973H200.619V1086.91ZM53.6766 1086.91H199.619V940.973H53.6766V1086.91ZM1229.21 939.973H1375.16V794.03H1229.21V939.973ZM1082.27 939.973H1228.21V794.03H1082.27V939.973ZM935.329 939.973H1081.27V794.03H935.329V939.973ZM788.387 939.973H934.329V794.03H788.387V939.973ZM641.445 939.973H787.387V794.03H641.445V939.973ZM494.503 939.973H640.445V794.03H494.503V939.973ZM347.561 939.973H493.503V794.03H347.561V939.973ZM200.619 939.973H346.561V794.03H200.619V939.973ZM53.6766 939.973H199.619V794.03H53.6766V939.973ZM1229.21 793.03H1375.16V647.088H1229.21V793.03ZM1082.27 793.03H1228.21V647.088H1082.27V793.03ZM935.329 793.03H1081.27V647.088H935.329V793.03ZM788.387 793.03H934.329V647.088H788.387V793.03ZM641.445 793.03H787.387V647.088H641.445V793.03ZM494.503 793.03H640.445V647.088H494.503V793.03ZM347.561 793.03H493.503V647.088H347.561V793.03ZM200.619 793.03H346.561V647.088H200.619V793.03ZM53.6766 793.03H199.619V647.088H53.6766V793.03ZM1229.21 646.088H1375.16V500.147H1229.21V646.088ZM1082.27 646.088H1228.21V500.147H1082.27V646.088ZM935.329 646.088H1081.27V500.147H935.329V646.088ZM788.387 646.088H934.329V500.147H788.387V646.088ZM641.445 646.088H787.387V500.147H641.445V646.088ZM494.503 646.088H640.445V500.147H494.503V646.088ZM347.561 646.088H493.503V500.147H347.561V646.088ZM200.619 646.088H346.561V500.147H200.619V646.088ZM53.6766 646.088H199.619V500.147H53.6766V646.088ZM1229.21 499.147H1375.16V353.204H1229.21V499.147ZM1082.27 499.147H1228.21V353.204H1082.27V499.147ZM935.329 499.147H1081.27V353.204H935.329V499.147ZM788.387 499.147H934.329V353.204H788.387V499.147ZM641.445 499.147H787.387V353.204H641.445V499.147ZM494.503 499.147H640.445V353.204H494.503V499.147ZM347.561 499.147H493.503V353.204H347.561V499.147ZM200.619 499.147H346.561V353.204H200.619V499.147ZM53.6766 499.147H199.619V353.204H53.6766V499.147ZM1229.21 352.204H1375.16V206.263H1229.21V352.204ZM1082.27 352.204H1228.21V206.263H1082.27V352.204ZM935.329 352.204H1081.27V206.263H935.329V352.204ZM788.387 352.204H934.329V206.263H788.387V352.204ZM641.445 352.204H787.387V206.263H641.445V352.204ZM494.503 352.204H640.445V206.263H494.503V352.204ZM347.561 352.204H493.503V206.263H347.561V352.204ZM200.619 352.204H346.561V206.263H200.619V352.204ZM53.6766 352.204H199.619V206.263H53.6766V352.204ZM1229.21 205.263H1375.16V59.3204H1229.21V205.263ZM1082.27 205.263H1228.21V59.3204H1082.27V205.263ZM935.329 205.263H1081.27V59.3204H935.329V205.263ZM788.387 205.263H934.329V59.3204H788.387V205.263ZM641.445 205.263H787.387V59.3204H641.445V205.263ZM494.503 205.263H640.445V59.3204H494.503V205.263ZM347.561 205.263H493.503V59.3204H347.561V205.263ZM200.619 205.263H346.561V59.3204H200.619V205.263ZM53.6766 205.263H199.619V59.3204H53.6766V205.263ZM1229.21 58.3204H1375.16V-87.6219H1229.21V58.3204ZM1082.27 58.3204H1228.21V-87.6219H1082.27V58.3204ZM935.329 58.3204H1081.27V-87.6219H935.329V58.3204ZM788.387 58.3204H934.329V-87.6219H788.387V58.3204ZM641.445 58.3204H787.387V-87.6219H641.445V58.3204ZM494.503 58.3204H640.445V-87.6219H494.503V58.3204ZM347.561 58.3204H493.503V-87.6219H347.561V58.3204ZM200.619 58.3204H346.561V-87.6219H200.619V58.3204ZM53.6766 58.3204H199.619V-87.6219H53.6766V58.3204ZM1229.21 -88.6219H1375.16V-234.563H1229.21V-88.6219ZM1082.27 -88.6219H1228.21V-234.563H1082.27V-88.6219ZM935.329 -88.6219H1081.27V-234.563H935.329V-88.6219ZM788.387 -88.6219H934.329V-234.563H788.387V-88.6219ZM641.445 -88.6219H787.387V-234.563H641.445V-88.6219ZM494.503 -88.6219H640.445V-234.563H494.503V-88.6219ZM347.561 -88.6219H493.503V-234.563H347.561V-88.6219ZM200.619 -88.6219H346.561V-234.563H200.619V-88.6219ZM53.6766 -88.6219H199.619V-234.563H53.6766V-88.6219Z" fill="url(#paint0_radial_4_158)" fill-opacity="0.12"/>
<defs>
<radialGradient id="paint0_radial_4_158" cx="0" cy="0" r="1" gradientUnits="userSpaceOnUse" gradientTransform="translate(720 512.25) rotate(-26.2103) scale(771.148 770.612)">
<stop stop-color="white"/>
<stop offset="1" stop-color="#999999" stop-opacity="0"/>
</radialGradient>
</defs>
</svg>
